<svg xmlns="http://www.w3.org/2000/svg" xmlns:xlink="http://www.w3.org/1999/xlink" viewBox="0 0 328.63 72.31">
    <defs>
        <linearGradient id="a" x1="337.05" y1="323.15" x2="350.98" y2="323.15" gradientUnits="userSpaceOnUse">
            <stop offset="0" stop-color="#2bc4f3"/>
            <stop offset="0.5" stop-color="#00aeee"/>
            <stop offset="1" stop-color="#0095da"/>
        </linearGradient>
    </defs>
    <path d="M171.67,372.51a22.67,22.67,0,0,1-9.21,10.42,26.83,26.83,0,0,1-14.32,3.9,25.7,25.7,0,0,1-18.77-7.41,26.65,26.65,0,0,1,0-37.15,25.62,25.62,0,0,1,18.77-7.46,26,26,0,0,1,13.11,3.33,22.41,22.41,0,0,1,8.87,9L158,354.06a10.08,10.08,0,0,0-4-4.06,12.59,12.59,0,0,0-14.63,2.07,12.09,12.09,0,0,0-3.45,8.8,12,12,0,0,0,3.45,8.73,11.81,11.81,0,0,0,8.78,3.51,12.67,12.67,0,0,0,6.49-1.67,10.57,10.57,0,0,0,4.3-4.65Z" transform="translate(-121.83 -314.52)" fill="#231f20"/>
    <path d="M206.58,334.81q9.45,0,14.89,6.09t5.45,16.64v28.3H212.55V360c0-3.42-.87-6.09-2.59-8a9,9,0,0,0-7.06-2.89,11.27,11.27,0,0,0-5.65,1.52,11.88,11.88,0,0,0-4.25,4v31.19H178.63V314.52H193v27.1a15.22,15.22,0,0,1,5.77-5A17.1,17.1,0,0,1,206.58,334.81Z" transform="translate(-121.83 -314.52)" fill="#231f20"/>
    <path d="M273,335.81h14.37v50H273v-5.92a13.1,13.1,0,0,1-5.94,5,20.73,20.73,0,0,1-8.83,1.91,21.24,21.24,0,0,1-11.79-3.48,24.25,24.25,0,0,1-8.45-9.47,28.21,28.21,0,0,1-3.09-13.11,26.58,26.58,0,0,1,6.79-18.4,21.41,21.41,0,0,1,16.54-7.56,20.46,20.46,0,0,1,8.8,1.94,13.35,13.35,0,0,1,6,5ZM261.43,373.2a13.76,13.76,0,0,0,6.79-1.74A12.38,12.38,0,0,0,273,367V354.75a12.43,12.43,0,0,0-4.8-4.62,13.6,13.6,0,0,0-6.79-1.79,12.43,12.43,0,1,0,0,24.86Z" transform="translate(-121.83 -314.52)" fill="#231f20"/>
    <path d="M323.85,334.81a17,17,0,0,1,6.11.9l-.84,13.47A18.9,18.9,0,0,0,322.7,348a11.38,11.38,0,0,0-5.94,2.06,13.47,13.47,0,0,0-4.95,5.5v30.24H297.44v-50h14.37v5.91a12.93,12.93,0,0,1,5.25-5A14.12,14.12,0,0,1,323.85,334.81Z" transform="translate(-121.83 -314.52)" fill="#231f20"/>
    <path d="M336.83,335.81H351.2v50H336.83Z" transform="translate(-121.83 -314.52)" fill="#231f20"/>
    <path d="M385.22,334.81a26.55,26.55,0,0,1,10.22,2,24.69,24.69,0,0,1,13.72,13.75,26.67,26.67,0,0,1,2,10.32,26.31,26.31,0,0,1-3.41,13.28,24.34,24.34,0,0,1-9.35,9.32,26.34,26.34,0,0,1-13.2,3.36,26,26,0,1,1,0-52Zm0,13.73a11.42,11.42,0,0,0-8.53,3.5,12.17,12.17,0,0,0-3.41,8.83,12,12,0,0,0,3.41,8.7,12,12,0,0,0,17,0,12,12,0,0,0,3.43-8.7,12.16,12.16,0,0,0-3.4-8.83A11.38,11.38,0,0,0,385.22,348.54Z" transform="translate(-121.83 -314.52)" fill="#231f20"/>
    <path d="M449.72,372.51l.74,12.73a16.89,16.89,0,0,1-7.36,1.39q-8.94,0-14.44-5.39t-5.5-14.95V349.48h-9.3V335.81h9.3V322.68h14.37v13.13h12.29v13.67H437.53v16.07a7.29,7.29,0,0,0,2.24,5.54,7.67,7.67,0,0,0,5.47,2.11A13.64,13.64,0,0,0,449.72,372.51Z" transform="translate(-121.83 -314.52)" fill="#231f20"/>
    <path d="M337.05,318.91l13.9-2.78c0,3.34.09,6.47-.07,9.59a2.47,2.47,0,0,1-1.48,1.77c-4,1-8,1.76-12.35,2.68Z" transform="translate(-121.83 -314.52)" fill="url(#a)"/>
</svg>